#!OML:ASF F:\VICON\USERDATA\INSTALL\rory3\rory3.ASF
:FULLY-SPECIFIED
:DEGREES
204
root 0.620522 18.0851 3.96274 -0.862594 -3.84386 -7.26016
lowerback 11.397 1.54812 6.5282
upperback -0.0439674 3.07464 2.32535
thorax -6.24051 1.33892 -1.72433
lowerneck -17.6184 -2.84346 -1.30116
upperneck 16.2205 -3.69474 0.738214
head 7.9557 -1.76058 0.0189603
rclavicle -5.39203e-014 -1.3418e-014
rhumerus -24.337 -10.5231 -82.3067
rradius 31.2221
rwrist -1.83044
rhand -17.7754 21.3134
rfingers 7.12502
rthumb 8.48709 -8.49603
lclavicle -5.39203e-014 -1.3418e-014
lhumerus -33.0837 3.05449 84.223
lradius 26.0046
lwrist 7.36838
lhand -23.9133 21.9036
lfingers 7.12502
lthumb 2.56111 51.868
rfemur -1.36121 6.39554 35.3919
rtibia 26.0238
rfoot -17.5647 -6.01007
rtoes 8.66125
lfemur -28.6951 2.65464 -12.6508
ltibia 46.8002
lfoot -5.71055 3.83464
ltoes -4.35068
205
root 0.621302 18.0801 4.1239 -0.662761 -3.76803 -7.42213
lowerback 11.3328 1.5599 6.68437
upperback -0.0483886 3.10818 2.36938
thorax -6.20135 1.35239 -1.76767
lowerneck -17.8455 -2.86232 -1.40618
upperneck 16.2773 -3.68751 0.725455
head 8.01594 -1.76352 0.0288944
rclavicle -1.13742e-014 -7.55382e-015
rhumerus -23.9378 -10.1883 -82.2816
rradius 31.2306
rwrist -2.01925
rhand -17.7321 21.6648
rfingers 7.12502
rthumb 8.52888 -8.14292
lclavicle -1.13742e-014 -7.55382e-015
lhumerus -33.1925 3.18201 84.2426
lradius 25.8838
lwrist 7.39739
lhand -23.7643 22.1762
lfingers 7.12502
lthumb 2.70502 52.1388
rfemur -0.709914 6.27418 35.5961
rtibia 25.4022
rfoot -17.4631 -6.15684
rtoes 8.81486
lfemur -28.8573 2.1038 -12.3581
ltibia 43.9514
lfoot -4.73472 3.9991
ltoes -1.34813
206
root 0.62478 18.0895 4.30037 -0.438576 -3.62004 -7.40307
lowerback 11.0518 1.57707 6.8001
upperback -0.0106305 3.11312 2.29489
thorax -5.99196 1.35829 -1.89944
lowerneck -17.9772 -2.87166 -1.45858
upperneck 16.0809 -3.69799 0.809659
head 7.97603 -1.76318 0.0638378
rclavicle 3.41972e-014 1.92821e-014
rhumerus -23.4159 -10.1545 -82.2986
rradius 30.9762
rwrist -1.85134
rhand -17.9431 22.3405
rfingers 7.12502
rthumb 8.32527 -7.47546
lclavicle 3.41972e-014 1.92821e-014
lhumerus -33.1356 3.33548 84.2242
lradius 25.5698
lwrist 7.60276
lhand -23.8994 21.4478
lfingers 7.12502
lthumb 2.57453 51.412
rfemur 0.0517727 6.10024 35.5619
rtibia 24.6887
rfoot -17.5673 -6.21905
rtoes 7.97025
lfemur -29.0132 1.52898 -12.2711
ltibia 40.964
lfoot -4.72966 4.03104
ltoes -1.98272
207
root 0.628637 18.0955 4.47342 -0.264068 -3.68991 -7.50747
lowerback 11.0016 1.63114 6.97278
upperback -0.113263 3.20639 2.25374
thorax -6.05425 1.39402 -2.05257
lowerneck -17.6961 -2.84485 -1.35082
upperneck 15.9262 -3.68161 0.757677
head 7.87229 -1.75626 0.0363858
rclavicle -2.25434e-014 -2.54444e-014
rhumerus -23.4132 -10.0717 -82.3113
rradius 31.0636
rwrist -1.75234
rhand -18.1181 22.8347
rfingers 7.12502
rthumb 8.15639 -6.98784
lclavicle -2.25434e-014 -2.54444e-014
lhumerus -33.3852 3.55788 84.0746
lradius 25.2699
lwrist 7.61235
lhand -24.5338 20.3259
lfingers 7.12502
lthumb 1.96184 50.2966
rfemur 0.94084 6.05513 35.6775
rtibia 23.8101
rfoot -17.5607 -6.26637
rtoes 8.14566
lfemur -28.9242 0.937476 -11.9882
ltibia 37.8947
lfoot -4.53776 4.11562
ltoes -4.30376
208
root 0.634322 18.0932 4.64647 -0.0660866 -3.82526 -7.458
lowerback 10.9063 1.7144 6.90735
upperback -0.198318 3.30523 2.25222
thorax -6.08625 1.44178 -2.03033
lowerneck -17.4888 -2.80428 -1.28532
upperneck 15.8562 -3.61955 0.626408
head 7.80852 -1.73738 -0.00674552
rclavicle -6.72762e-015 1.8487e-014
rhumerus -23.3318 -9.71854 -82.2626
rradius 31.1649
rwrist -2.01095
rhand -18.2834 22.804
rfingers 7.12502
rthumb 7.99683 -7.02477
lclavicle -6.72762e-015 1.8487e-014
lhumerus -33.8435 3.8429 83.9811
lradius 25.3473
lwrist 7.49633
lhand -24.513 20.0519
lfingers 7.12502
lthumb 1.98189 50.0224
rfemur 1.79916 6.02253 35.5969
rtibia 22.949
rfoot -17.4702 -6.34179
rtoes 7.78929
lfemur -28.7997 0.371483 -11.8887
ltibia 34.7498
lfoot -3.92099 4.22164
ltoes -6.63081
209
root 0.642305 18.0864 4.82246 0.228453 -3.80081 -7.5331
lowerback 10.6461 1.77707 7.0601
upperback -0.18997 3.38173 2.23733
thorax -5.91485 1.48092 -2.13055
lowerneck -17.9241 -2.77907 -1.31801
upperneck 15.987 -3.57905 0.663308
head 7.92848 -1.7136 0.00836467
rclavicle 1.1896e-014 -1.14301e-014
rhumerus -23.0023 -9.69965 -82.2276
rradius 31.189
rwrist -2.02725
rhand -18.1877 23.4548
rfingers 7.12502
rthumb 8.08916 -6.37034
lclavicle 1.1896e-014 -1.14301e-014
lhumerus -33.8954 4.15662 83.9061
lradius 25.3068
lwrist 7.1386
lhand -24.211 20.8237
lfingers 7.12502
lthumb 2.27354 50.7913
rfemur 2.43478 5.79585 35.602
rtibia 22.3023
rfoot -17.6898 -6.27079
rtoes 7.76709
lfemur -28.8124 -0.210381 -11.6327
ltibia 31.5888
lfoot -3.48029 4.13594
ltoes -7.57608
210
root 0.647759 18.0748 4.99171 0.37157 -3.8587 -7.56391
lowerback 10.6832 1.85928 7.10978
upperback -0.214806 3.50034 2.20783
thorax -5.94744 1.53535 -2.20842
lowerneck -18.1456 -2.78113 -1.38029
upperneck 15.9908 -3.58763 0.793122
head 7.97206 -1.70702 0.0574138
rclavicle 1.79093e-014 1.49089e-015
rhumerus -23.0455 -9.64572 -82.1743
rradius 31.6168
rwrist -1.93682
rhand -18.1457 23.7904
rfingers 7.12502
rthumb 8.12974 -6.03317
lclavicle 1.79093e-014 1.49089e-015
lhumerus -33.8003 4.4262 83.809
lradius 24.9719
lwrist 6.972
lhand -24.2167 21.5544
lfingers 7.12502
lthumb 2.26811 51.5221
rfemur 3.14312 5.75488 35.6178
rtibia 21.8096
rfoot -17.9413 -6.22074
rtoes 7.94955
lfemur -28.5496 -0.872162 -11.353
ltibia 28.4398
lfoot -3.25689 4.22029
ltoes -8.61809
211
root 0.655469 18.0555 5.16633 0.493541 -4.03425 -7.44397
lowerback 10.5922 1.96334 7.06198
upperback -0.222264 3.61731 2.09332
thorax -5.88873 1.59459 -2.31482
lowerneck -18.0676 -2.7906 -1.19667
upperneck 15.7678 -3.62737 0.690679
head 7.87886 -1.72645 -0.0081899
rclavicle -3.4837e-014 7.40473e-015
rhumerus -22.9894 -9.48145 -82.257
rradius 31.8747
rwrist -1.90533
rhand -18.4642 23.518
rfingers 7.12502
rthumb 7.82234 -6.31731
lclavicle -3.4837e-014 7.40473e-015
lhumerus -33.7898 4.75875 83.5907
lradius 24.4593
lwrist 6.8344
lhand -24.4159 19.511
lfingers 7.12502
lthumb 2.07565 49.4807
rfemur 3.94515 5.74711 35.4643
rtibia 21.3332
rfoot -18.1759 -6.24896
rtoes 6.89975
lfemur -28.0797 -1.56341 -11.2405
ltibia 25.342
lfoot -3.484 4.69125
ltoes -9.83086
212
root 0.665264 18.0346 5.35159 0.626233 -4.10541 -7.55009
lowerback 10.3272 2.01141 7.22899
upperback -0.200477 3.67523 2.09779
thorax -5.70127 1.62586 -2.39737
lowerneck -18.0117 -2.81821 -1.12543
upperneck 15.6803 -3.66174 0.579431
head 7.83666 -1.75042 -0.0591187
rclavicle -1.32502e-014 -4.2689e-014
rhumerus -22.7293 -9.31729 -82.2719
rradius 31.8076
rwrist -1.91393
rhand -18.5429 23.4146
rfingers 7.12502
rthumb 7.74634 -6.42351
lclavicle -1.32502e-014 -4.2689e-014
lhumerus -33.9337 5.07858 83.4773
lradius 24.1668
lwrist 6.67673
lhand -24.488 17.3401
lfingers 7.12502
lthumb 2.00604 47.3104
rfemur 4.74146 5.62818 35.5426
rtibia 20.8554
rfoot -18.4522 -6.18488
rtoes 5.73624
lfemur -27.6296 -2.32213 -10.8599
ltibia 22.3314
lfoot -3.89649 5.11623
ltoes -9.08756
